<?xml version="1.0" encoding="utf-8"?>
<!-- Generator: Adobe Illustrator 20.1.0, SVG Export Plug-In . SVG Version: 6.00 Build 0)  -->
<svg version="1.1" id="Layer_1" xmlns="http://www.w3.org/2000/svg" xmlns:xlink="http://www.w3.org/1999/xlink" x="0px" y="0px"
	 viewBox="0 0 100 40.4" style="enable-background:new 0 0 100 40.4;" xml:space="preserve">
<style type="text/css">
	.st0{fill:#FFFFFF;}
</style>
<g>
	<path class="st0" d="M62.6,8.1c0,0.6,0.2,1.3,0.7,1.8l10.6,10.6H20.1c-1.4,0-2.5,1.1-2.5,2.5s1.1,2.5,2.5,2.5h53.8L63.3,36
		c-0.5,0.5-0.7,1.1-0.7,1.8s0.2,1.3,0.7,1.8c1,1,2.6,1,3.5,0l14.8-14.8c0.1-0.1,0.2-0.3,0.3-0.4c0.5-0.7,0.5-1.6,0.2-2.3
		c-0.1-0.3-0.3-0.6-0.5-0.8l0,0l-14.8-15c-1-1-2.6-1-3.5,0C62.8,6.8,62.6,7.4,62.6,8.1z"/>
</g>
</svg>
